<?xml version="1.0" encoding="UTF-8" standalone="no"?>
<svg
   xmlns:dc="http://purl.org/dc/elements/1.1/"
   xmlns:cc="http://creativecommons.org/ns#"
   xmlns:rdf="http://www.w3.org/1999/02/22-rdf-syntax-ns#"
   xmlns:svg="http://www.w3.org/2000/svg"
   xmlns="http://www.w3.org/2000/svg"
   version="1.1"
   id="svg2"
   height="13.95801"
   width="13.958">
  <metadata
     id="metadata21">
    <rdf:RDF>
      <cc:Work
         rdf:about="">
        <dc:format>image/svg+xml</dc:format>
        <dc:type
           rdf:resource="http://purl.org/dc/dcmitype/StillImage" />
        <dc:title>cross</dc:title>
      </cc:Work>
    </rdf:RDF>
  </metadata>
  <defs
     id="defs19" />
  <!-- Generator: sketchtool 39.1 (31720) - http://www.bohemiancoding.com/sketch -->
  <title
     id="title4">cross</title>
  <desc
     id="desc6">Created with sketchtool.</desc>
  <g
     id="g8">
    <title
       id="title10">Layer 1</title>
    <g
       style="fill:none;fill-rule:evenodd"
       id="Page-1">
      <g
         style="fill:#000000"
         id="Menu_full_screen_mobile">
        <g
           id="Group">
          <path
             id="Line"
             d="m 12.2509,13.66511 c 0.39052,0.39052 1.02369,0.39052 1.41421,0 0.39052,-0.39052 0.39052,-1.02369 0,-1.41421 L 1.7071,0.29289 c -0.39052,-0.39052 -1.02369,-0.39052 -1.41421,0 -0.39052,0.39052 -0.39052,1.02369 0,1.41421 L 12.2509,13.66511 Z" />
          <path
             id="Line-Copy-5"
             d="m 13.66511,1.70711 c 0.39052,-0.39052 0.39052,-1.02369 0,-1.41421 -0.39052,-0.39052 -1.02369,-0.39052 -1.41421,0 L 0.29289,12.25091 c -0.39052,0.39052 -0.39052,1.02369 0,1.41421 0.39052,0.39052 1.02369,0.39052 1.41421,0 L 13.66511,1.70711 Z" />
        </g>
      </g>
    </g>
  </g>
</svg>
