<?xml version="1.0" encoding="UTF-8" standalone="no"?>
<svg
   xmlns:dc="http://purl.org/dc/elements/1.1/"
   xmlns:cc="http://creativecommons.org/ns#"
   xmlns:rdf="http://www.w3.org/1999/02/22-rdf-syntax-ns#"
   xmlns:svg="http://www.w3.org/2000/svg"
   xmlns="http://www.w3.org/2000/svg"
   id="svg2"
   version="1.1"
   viewBox="0 0 13 10"
   height="10"
   width="13">
  <metadata
     id="metadata17">
    <rdf:RDF>
      <cc:Work
         rdf:about="">
        <dc:format>image/svg+xml</dc:format>
        <dc:type
           rdf:resource="http://purl.org/dc/dcmitype/StillImage" />
        <dc:title>menu</dc:title>
      </cc:Work>
    </rdf:RDF>
  </metadata>
  <!-- Generator: sketchtool 39.1 (31720) - http://www.bohemiancoding.com/sketch -->
  <title
     id="title4">menu</title>
  <desc
     id="desc6">Created with sketchtool.</desc>
  <defs
     id="defs8" />
  <g
     style="fill:none;fill-rule:evenodd;stroke:none;stroke-width:1"
     id="Page-1">
    <g
       style="fill:#000000"
       transform="translate(-33,-45)"
       id="01_Home_Screen_01">
      <g
         transform="translate(33,45)"
         id="Group">
        <path
           id="Line"
           d="M 11.50903,3 C 12.33247,3 13,2.3284271 13,1.5 13,0.67157287 12.33247,0 11.50903,0 L 1.4909702,0 C 0.66753011,0 0,0.67157287 0,1.5 0,2.3284271 0.66753011,3 1.4909702,3 L 11.50903,3 Z" />
        <path
           id="Line-Copy-5"
           d="M 11.50903,10 C 12.33247,10 13,9.3284271 13,8.5 13,7.6715729 12.33247,7 11.50903,7 L 1.4909702,7 C 0.66753011,7 0,7.6715729 0,8.5 0,9.3284271 0.66753011,10 1.4909702,10 L 11.50903,10 Z" />
      </g>
    </g>
  </g>
</svg>
