<?xml version="1.0" encoding="UTF-8" standalone="no"?>
<svg width="53px" height="53px" viewBox="0 0 53 53" version="1.1" xmlns="http://www.w3.org/2000/svg" xmlns:xlink="http://www.w3.org/1999/xlink">
    <!-- Generator: sketchtool 39.1 (31720) - http://www.bohemiancoding.com/sketch -->
    <title>DF7BABB3-D6ED-4C40-A192-EF5FF23CA899</title>
    <desc>Created with sketchtool.</desc>
    <defs></defs>
    <g id="Page-1" stroke="none" stroke-width="1" fill="none" fill-rule="evenodd">
        <g id="01_Home_Screen_01" transform="translate(-808.000000, -626.000000)" fill="#FFFFFF">
            <g id="Group-3" transform="translate(808.000000, 626.000000)">
                <path d="M25,19.3333333 L25,32.6666667 L24.9578458,32.6947695 C24.8688751,32.3701757 24.6333199,32.0273718 24.1971561,31.7901498 C23.7544501,31.5493697 23.3287424,31.5403976 23,31.6487636 L23,31.5962991 L33.065791,24.8857718 C32.3335277,25.3739473 32.3311622,26.6244756 33.065791,27.1142282 L23,20.4037009 L23,20.351459 C23.3304969,20.4608387 23.7573142,20.4516798 24.1980878,20.2120153 C24.6325058,19.9758067 24.8689086,19.6320436 24.9580282,19.3053521 L25,19.3333333 Z M23.8248086,18.5498724 L34.1751914,25.4501276 C34.6307206,25.7538137 34.6277051,26.2481966 34.1751914,26.5498724 L23.8248086,33.4501276 C23.3692794,33.7538137 23,33.5553691 23,32.9991283 L23,19.0008717 C23,18.4481055 23.3722949,18.2481966 23.8248086,18.5498724 Z" id="Rectangle"></path>
                <path d="M53,26.5 C53,11.8644541 41.1355459,0 26.5,0 C11.8644541,0 0,11.8644541 0,26.5 C0,41.1355459 11.8644541,53 26.5,53 C41.1355459,53 53,41.1355459 53,26.5 Z M2,26.5 C2,12.9690236 12.9690236,2 26.5,2 C40.0309764,2 51,12.9690236 51,26.5 C51,40.0309764 40.0309764,51 26.5,51 C12.9690236,51 2,40.0309764 2,26.5 Z" id="Oval-5"></path>
            </g>
        </g>
    </g>
</svg>
