<?xml version="1.0" encoding="UTF-8" standalone="no"?>
<svg
   xmlns:dc="http://purl.org/dc/elements/1.1/"
   xmlns:cc="http://creativecommons.org/ns#"
   xmlns:rdf="http://www.w3.org/1999/02/22-rdf-syntax-ns#"
   xmlns:svg="http://www.w3.org/2000/svg"
   xmlns="http://www.w3.org/2000/svg"
   id="svg2"
   version="1.1"
   viewBox="0 0 19.999981 18.18162"
   height="18.18162"
   width="19.999981">
  <metadata
     id="metadata15">
    <rdf:RDF>
      <cc:Work
         rdf:about="">
        <dc:format>image/svg+xml</dc:format>
        <dc:type
           rdf:resource="http://purl.org/dc/dcmitype/StillImage" />
        <dc:title>social-linkedin</dc:title>
      </cc:Work>
    </rdf:RDF>
  </metadata>
  <!-- Generator: sketchtool 39.1 (31720) - http://www.bohemiancoding.com/sketch -->
  <title
     id="title4">social-linkedin</title>
  <desc
     id="desc6">Created with sketchtool.</desc>
  <defs
     id="defs8" />
  <g
     style="fill:none;fill-rule:evenodd;stroke:none;stroke-width:1"
     id="Page-1">
    <g
       style="fill:#000000"
       transform="translate(-228,-189)"
       id="Menu_full_screen_mobile">
      <path
         d="m 228.5042,194.83031 3.89808,0 0,12.35131 -3.89808,0 0,-12.35131 z m 14.54866,-0.11874 c -2.23313,0 -3.63242,1.20955 -3.89103,2.05747 l 0,-1.93873 -4.37896,0 c 0.0564,1.02954 0,12.35131 0,12.35131 l 4.37896,0 0,-6.68365 c 0,-0.37138 -0.0174,-0.74275 0.0954,-1.00949 0.3009,-0.74275 0.94768,-1.51315 2.1106,-1.51315 1.52074,0 2.21198,1.14177 2.21198,2.81486 l 0,6.39143 4.42017,0 0,-6.86744 c 0,-3.82597 -2.17674,-5.60261 -4.94714,-5.60261 z M 230.38113,189 C 228.94172,189 228,189.92437 228,191.14421 c 0,1.19707 0.91515,2.1415 2.32583,2.1415 l 0.0282,0 c 1.46544,0 2.37789,-0.94768 2.37789,-2.14475 C 232.70371,189.9222 231.81946,189 230.38113,189 Z"
         id="Fill-88" />
    </g>
  </g>
</svg>
