<?xml version="1.0" encoding="UTF-8" standalone="no"?>
<svg
   xmlns:dc="http://purl.org/dc/elements/1.1/"
   xmlns:cc="http://creativecommons.org/ns#"
   xmlns:rdf="http://www.w3.org/1999/02/22-rdf-syntax-ns#"
   xmlns:svg="http://www.w3.org/2000/svg"
   xmlns="http://www.w3.org/2000/svg"
   id="svg2"
   version="1.1"
   viewBox="0 0 26 16.54534"
   height="16.54534"
   width="26">
  <metadata
     id="metadata15">
    <rdf:RDF>
      <cc:Work
         rdf:about="">
        <dc:format>image/svg+xml</dc:format>
        <dc:type
           rdf:resource="http://purl.org/dc/dcmitype/StillImage" />
        <dc:title>social-googleplus</dc:title>
      </cc:Work>
    </rdf:RDF>
  </metadata>
  <!-- Generator: sketchtool 39.1 (31720) - http://www.bohemiancoding.com/sketch -->
  <title
     id="title4">social-googleplus</title>
  <desc
     id="desc6">Created with sketchtool.</desc>
  <defs
     id="defs8" />
  <g
     style="fill:none;fill-rule:evenodd;stroke:none;stroke-width:1"
     id="Page-1">
    <g
       style="fill:#000000"
       transform="translate(-65,-192)"
       id="Menu_full_screen_mobile">
      <path
         d="m 73.258172,198.6345 0,3.27634 c 0,0 3.172601,-0.005 4.464451,-0.005 -0.699725,2.1243 -1.787327,3.28084 -4.464451,3.28084 -2.70934,0 -4.823979,-2.20033 -4.823979,-4.91482 0,-2.71385 2.114639,-4.91419 4.823979,-4.91419 1.43231,0 2.357544,0.5045 3.206106,1.20745 0.679107,-0.6804 0.622407,-0.77769 2.350457,-2.41296 C 77.347632,192.81506 75.397938,192 73.258172,192 68.697718,192 65,195.70352 65,200.27235 c 0,4.56883 3.697718,8.27299 8.258172,8.27299 6.816841,0 8.483037,-5.94638 7.93086,-9.91084 l -7.93086,0 z m 14.88043,0.16366 0,-2.86656 -2.043764,0 0,2.86656 -2.94387,0 0,2.04763 2.94387,0 0,2.94902 2.043764,0 0,-2.94902 2.861398,0 0,-2.04763 -2.861398,0 z"
         id="Google+" />
    </g>
  </g>
</svg>
