<?xml version="1.0" encoding="UTF-8" standalone="no"?>
<svg
   xmlns:dc="http://purl.org/dc/elements/1.1/"
   xmlns:cc="http://creativecommons.org/ns#"
   xmlns:rdf="http://www.w3.org/1999/02/22-rdf-syntax-ns#"
   xmlns:svg="http://www.w3.org/2000/svg"
   xmlns="http://www.w3.org/2000/svg"
   id="svg2"
   version="1.1"
   viewBox="0 0 16 16.00046"
   height="16.00046"
   width="16">
  <metadata
     id="metadata15">
    <rdf:RDF>
      <cc:Work
         rdf:about="">
        <dc:format>image/svg+xml</dc:format>
        <dc:type
           rdf:resource="http://purl.org/dc/dcmitype/StillImage" />
        <dc:title>social-facebook</dc:title>
      </cc:Work>
    </rdf:RDF>
  </metadata>
  <!-- Generator: sketchtool 39.1 (31720) - http://www.bohemiancoding.com/sketch -->
  <title
     id="title4">social-facebook</title>
  <desc
     id="desc6">Created with sketchtool.</desc>
  <defs
     id="defs8" />
  <g
     style="fill:none;fill-rule:evenodd;stroke:none;stroke-width:1"
     id="Page-1">
    <g
       style="fill:#000000"
       transform="translate(-122,-192)"
       id="Menu_full_screen_mobile">
      <path
         d="m 138,207.11699 c 0,0.48771 -0.3953,0.88345 -0.88301,0.88345 l -4.07725,0 0,-6.19629 2.07981,0 0.31163,-2.41454 -2.39144,0 0,-1.54199 c 0,-0.69908 0.19439,-1.17545 1.19681,-1.17545 l 1.27874,-4.4e-4 0,-2.16 c -0.2214,-0.0292 -0.98019,-0.095 -1.8632,-0.095 -1.84359,0 -3.10577,1.12533 -3.10577,3.19207 l 0,1.78083 -2.08504,0 0,2.41454 2.08504,0 0,6.19629 -7.66332,0 c -0.4877,0 -0.883,-0.39574 -0.883,-0.88345 l 0,-14.23355 C 122,192.3953 122.3953,192 122.883,192 l 14.23399,0 C 137.6047,192 138,192.3953 138,192.88344 l 0,14.23355"
         id="Facebook" />
    </g>
  </g>
</svg>
