<?xml version="1.0" encoding="UTF-8" standalone="no"?>
<svg
   xmlns:dc="http://purl.org/dc/elements/1.1/"
   xmlns:cc="http://creativecommons.org/ns#"
   xmlns:rdf="http://www.w3.org/1999/02/22-rdf-syntax-ns#"
   xmlns:svg="http://www.w3.org/2000/svg"
   xmlns="http://www.w3.org/2000/svg"
   id="svg2"
   version="1.1"
   viewBox="0 0 19 19"
   height="19"
   width="19">
  <metadata
     id="metadata15">
    <rdf:RDF>
      <cc:Work
         rdf:about="">
        <dc:format>image/svg+xml</dc:format>
        <dc:type
           rdf:resource="http://purl.org/dc/dcmitype/StillImage" />
        <dc:title>social-pinterest</dc:title>
      </cc:Work>
    </rdf:RDF>
  </metadata>
  <!-- Generator: sketchtool 39.1 (31720) - http://www.bohemiancoding.com/sketch -->
  <title
     id="title4">social-pinterest</title>
  <desc
     id="desc6">Created with sketchtool.</desc>
  <defs
     id="defs8" />
  <g
     style="fill:none;fill-rule:evenodd;stroke:none;stroke-width:1"
     id="Page-1">
    <g
       style="fill:#000000"
       transform="translate(-175,-191)"
       id="Menu_full_screen_mobile">
      <path
         d="m 175,200.50056 c 0,3.88893 2.33939,7.23155 5.6876,8.70065 -0.0268,-0.66249 -0.004,-1.46016 0.16423,-2.18187 0.18321,-0.77085 1.2222,-5.17592 1.2222,-5.17592 0,0 -0.30276,-0.60664 -0.30276,-1.50374 0,-1.40765 0.81666,-2.45893 1.83219,-2.45893 0.86358,0 1.28141,0.64909 1.28141,1.42665 0,0.86806 -0.55412,2.16735 -0.83901,3.37056 -0.23796,1.00882 0.50497,1.82995 1.49927,1.82995 1.79979,0 3.01193,-2.31146 3.01193,-5.0508 0,-2.08132 -1.40206,-3.6398 -3.9526,-3.6398 -2.88123,0 -4.67655,2.14835 -4.67655,4.54807 0,0.82895 0.24355,1.41212 0.62563,1.86347 0.17651,0.20891 0.19997,0.29158 0.13629,0.53066 -0.0447,0.17316 -0.1497,0.59546 -0.19327,0.76192 -0.0637,0.2402 -0.25807,0.32734 -0.4748,0.23796 -1.32834,-0.54183 -1.94614,-1.99529 -1.94614,-3.62974 0,-2.698 2.27571,-5.93561 6.78914,-5.93561 3.62751,0 6.01494,2.6265 6.01494,5.44293 0,3.72694 -2.07127,6.51097 -5.12678,6.51097 -1.02446,0 -1.98971,-0.55413 -2.32039,-1.1831 0,0 -0.55189,2.18857 -0.66808,2.61086 -0.20109,0.73176 -0.59546,1.46464 -0.95631,2.0344 0.85465,0.25249 1.75733,0.3899 2.69242,0.3899 C 189.74687,210 194,205.74687 194,200.50056 194,195.25313 189.74687,191 184.50056,191 179.25425,191 175,195.25313 175,200.50056 Z"
         id="Pinterest" />
    </g>
  </g>
</svg>
