<?xml version="1.0" encoding="UTF-8" standalone="no"?>
<svg
   xmlns:dc="http://purl.org/dc/elements/1.1/"
   xmlns:cc="http://creativecommons.org/ns#"
   xmlns:rdf="http://www.w3.org/1999/02/22-rdf-syntax-ns#"
   xmlns:svg="http://www.w3.org/2000/svg"
   xmlns="http://www.w3.org/2000/svg"
   id="svg2"
   version="1.1"
   viewBox="0 0 5.8649998 11.025"
   height="11.025"
   width="5.8649998">
  <metadata
     id="metadata16">
    <rdf:RDF>
      <cc:Work
         rdf:about="">
        <dc:format>image/svg+xml</dc:format>
        <dc:type
           rdf:resource="http://purl.org/dc/dcmitype/StillImage" />
        <dc:title>79010928-A964-4793-B961-47D1F4607F38</dc:title>
      </cc:Work>
    </rdf:RDF>
  </metadata>
  <!-- Generator: sketchtool 39.1 (31720) - http://www.bohemiancoding.com/sketch -->
  <title
     id="title4">79010928-A964-4793-B961-47D1F4607F38</title>
  <desc
     id="desc6">Created with sketchtool.</desc>
  <defs
     id="defs8" />
  <g
     transform="translate(-0.185,-0.155)"
     style="fill:none;fill-rule:evenodd;stroke:none;stroke-width:1"
     id="Page-1">
    <g
       style="fill:#000000"
       transform="translate(-46,-587)"
       id="01_Home_Screen_01">
      <g
         transform="translate(34,577)"
         id="question">
        <path
           d="m 12.695,12.075 c 0.84,-0.525 1.35,-0.72 2.325,-0.72 0.945,0 1.635,0.45 1.635,1.575 0,2.04 -2.64,1.995 -2.64,4.545 l 0,0.915 1.26,0 0,-0.915 c 0,-1.95 2.775,-2.34 2.775,-4.53 0,-1.875 -1.38,-2.79 -3.015,-2.79 -1.185,0 -2.145,0.27 -2.85,0.87 l 0.51,1.05 z m 1.035,8.205 c 0,0.525 0.375,0.9 0.9,0.9 0.525,0 0.915,-0.375 0.915,-0.9 0,-0.525 -0.39,-0.915 -0.915,-0.915 -0.525,0 -0.9,0.39 -0.9,0.915 l 0,0 z"
           id="support" />
      </g>
    </g>
  </g>
</svg>
